<mxfile host="app.diagrams.net" modified="2024-07-09T23:50:02.522Z" agent="Mozilla/5.0 (Windows NT 10.0; Win64; x64) AppleWebKit/537.36 (KHTML, like Gecko) Chrome/126.0.0.0 Safari/537.36" etag="kb9gfMpfCEzGV0DUfD7c" version="24.6.4" type="device">
  <diagram name="Página-1" id="2fv0zx_rzzcKRC5fdZTG">
    <mxGraphModel dx="1857" dy="2156" grid="1" gridSize="10" guides="1" tooltips="1" connect="1" arrows="1" fold="1" page="1" pageScale="1" pageWidth="827" pageHeight="1169" math="0" shadow="0">
      <root>
        <mxCell id="0" />
        <mxCell id="1" parent="0" />
        <mxCell id="ayJkuLJCnhyEj2kJI8mR-2" value="Usuário&lt;div&gt;&lt;br&gt;&lt;/div&gt;" style="shape=umlActor;verticalLabelPosition=bottom;verticalAlign=top;html=1;outlineConnect=0;" vertex="1" parent="1">
          <mxGeometry x="30" y="500" width="30" height="60" as="geometry" />
        </mxCell>
        <mxCell id="ayJkuLJCnhyEj2kJI8mR-6" value="&lt;div&gt;Produtos&lt;/div&gt;" style="ellipse;whiteSpace=wrap;html=1;" vertex="1" parent="1">
          <mxGeometry x="206" y="480" width="120" height="80" as="geometry" />
        </mxCell>
        <mxCell id="ayJkuLJCnhyEj2kJI8mR-8" value="Clientes" style="ellipse;whiteSpace=wrap;html=1;" vertex="1" parent="1">
          <mxGeometry x="206" y="900" width="120" height="80" as="geometry" />
        </mxCell>
        <mxCell id="ayJkuLJCnhyEj2kJI8mR-9" value="Serviços" style="ellipse;whiteSpace=wrap;html=1;" vertex="1" parent="1">
          <mxGeometry x="190" y="110" width="120" height="80" as="geometry" />
        </mxCell>
        <mxCell id="ayJkuLJCnhyEj2kJI8mR-10" value="Listar" style="ellipse;whiteSpace=wrap;html=1;" vertex="1" parent="1">
          <mxGeometry x="334" y="870" width="100" height="66.67" as="geometry" />
        </mxCell>
        <mxCell id="ayJkuLJCnhyEj2kJI8mR-38" style="edgeStyle=orthogonalEdgeStyle;rounded=0;orthogonalLoop=1;jettySize=auto;html=1;" edge="1" parent="1" source="ayJkuLJCnhyEj2kJI8mR-11">
          <mxGeometry relative="1" as="geometry">
            <mxPoint x="540" y="814.6650000000004" as="targetPoint" />
          </mxGeometry>
        </mxCell>
        <mxCell id="ayJkuLJCnhyEj2kJI8mR-11" value="Cadastrar" style="ellipse;whiteSpace=wrap;html=1;" vertex="1" parent="1">
          <mxGeometry x="332" y="780" width="104" height="69.33" as="geometry" />
        </mxCell>
        <mxCell id="ayJkuLJCnhyEj2kJI8mR-12" value="Atualizar&lt;div&gt;&lt;br&gt;&lt;/div&gt;" style="ellipse;whiteSpace=wrap;html=1;" vertex="1" parent="1">
          <mxGeometry x="332" y="950" width="104" height="69.33" as="geometry" />
        </mxCell>
        <mxCell id="ayJkuLJCnhyEj2kJI8mR-52" style="edgeStyle=orthogonalEdgeStyle;rounded=0;orthogonalLoop=1;jettySize=auto;html=1;exitX=1;exitY=0.5;exitDx=0;exitDy=0;entryX=0;entryY=0.5;entryDx=0;entryDy=0;" edge="1" parent="1" source="ayJkuLJCnhyEj2kJI8mR-13" target="ayJkuLJCnhyEj2kJI8mR-41">
          <mxGeometry relative="1" as="geometry" />
        </mxCell>
        <mxCell id="ayJkuLJCnhyEj2kJI8mR-13" value="Excluir" style="ellipse;whiteSpace=wrap;html=1;" vertex="1" parent="1">
          <mxGeometry x="330" y="1030" width="104" height="69.33" as="geometry" />
        </mxCell>
        <mxCell id="ayJkuLJCnhyEj2kJI8mR-21" value="" style="endArrow=none;html=1;rounded=0;" edge="1" parent="1">
          <mxGeometry width="50" height="50" relative="1" as="geometry">
            <mxPoint x="60" y="520" as="sourcePoint" />
            <mxPoint x="110" y="520" as="targetPoint" />
          </mxGeometry>
        </mxCell>
        <mxCell id="ayJkuLJCnhyEj2kJI8mR-22" value="" style="endArrow=none;html=1;rounded=0;entryX=0;entryY=0.5;entryDx=0;entryDy=0;" edge="1" parent="1" target="ayJkuLJCnhyEj2kJI8mR-9">
          <mxGeometry width="50" height="50" relative="1" as="geometry">
            <mxPoint x="120" y="520" as="sourcePoint" />
            <mxPoint x="110" y="160" as="targetPoint" />
            <Array as="points">
              <mxPoint x="120" y="330" />
              <mxPoint x="120" y="150" />
            </Array>
          </mxGeometry>
        </mxCell>
        <mxCell id="ayJkuLJCnhyEj2kJI8mR-23" value="" style="endArrow=none;html=1;rounded=0;entryX=0;entryY=0.5;entryDx=0;entryDy=0;" edge="1" parent="1" target="ayJkuLJCnhyEj2kJI8mR-6">
          <mxGeometry width="50" height="50" relative="1" as="geometry">
            <mxPoint x="110" y="520" as="sourcePoint" />
            <mxPoint x="140" y="530" as="targetPoint" />
          </mxGeometry>
        </mxCell>
        <mxCell id="ayJkuLJCnhyEj2kJI8mR-24" value="" style="endArrow=none;html=1;rounded=0;exitX=0;exitY=0.5;exitDx=0;exitDy=0;" edge="1" parent="1" source="ayJkuLJCnhyEj2kJI8mR-8">
          <mxGeometry width="50" height="50" relative="1" as="geometry">
            <mxPoint x="120" y="960" as="sourcePoint" />
            <mxPoint x="120" y="520" as="targetPoint" />
            <Array as="points">
              <mxPoint x="120" y="940" />
            </Array>
          </mxGeometry>
        </mxCell>
        <mxCell id="ayJkuLJCnhyEj2kJI8mR-28" value="Listar" style="ellipse;whiteSpace=wrap;html=1;" vertex="1" parent="1">
          <mxGeometry x="344" y="450.34" width="100" height="66.67" as="geometry" />
        </mxCell>
        <mxCell id="ayJkuLJCnhyEj2kJI8mR-29" value="Cadastrar" style="ellipse;whiteSpace=wrap;html=1;" vertex="1" parent="1">
          <mxGeometry x="342" y="360.34" width="104" height="69.33" as="geometry" />
        </mxCell>
        <mxCell id="ayJkuLJCnhyEj2kJI8mR-30" value="Atualizar" style="ellipse;whiteSpace=wrap;html=1;" vertex="1" parent="1">
          <mxGeometry x="342" y="530.3399999999999" width="104" height="69.33" as="geometry" />
        </mxCell>
        <mxCell id="ayJkuLJCnhyEj2kJI8mR-46" style="edgeStyle=orthogonalEdgeStyle;rounded=0;orthogonalLoop=1;jettySize=auto;html=1;" edge="1" parent="1" source="ayJkuLJCnhyEj2kJI8mR-31" target="ayJkuLJCnhyEj2kJI8mR-47">
          <mxGeometry relative="1" as="geometry">
            <mxPoint x="590" y="645.0050000000006" as="targetPoint" />
          </mxGeometry>
        </mxCell>
        <mxCell id="ayJkuLJCnhyEj2kJI8mR-31" value="Excluir" style="ellipse;whiteSpace=wrap;html=1;" vertex="1" parent="1">
          <mxGeometry x="340" y="610.3399999999999" width="104" height="69.33" as="geometry" />
        </mxCell>
        <mxCell id="ayJkuLJCnhyEj2kJI8mR-34" value="Listar" style="ellipse;whiteSpace=wrap;html=1;" vertex="1" parent="1">
          <mxGeometry x="346" y="80.33999999999997" width="100" height="66.67" as="geometry" />
        </mxCell>
        <mxCell id="ayJkuLJCnhyEj2kJI8mR-48" style="edgeStyle=orthogonalEdgeStyle;rounded=0;orthogonalLoop=1;jettySize=auto;html=1;" edge="1" parent="1" source="ayJkuLJCnhyEj2kJI8mR-35">
          <mxGeometry relative="1" as="geometry">
            <mxPoint x="580" y="25.00500000000011" as="targetPoint" />
          </mxGeometry>
        </mxCell>
        <mxCell id="ayJkuLJCnhyEj2kJI8mR-35" value="Cadastrar" style="ellipse;whiteSpace=wrap;html=1;" vertex="1" parent="1">
          <mxGeometry x="344" y="-9.660000000000025" width="104" height="69.33" as="geometry" />
        </mxCell>
        <mxCell id="ayJkuLJCnhyEj2kJI8mR-36" value="Atualizar&lt;div&gt;&lt;br&gt;&lt;/div&gt;" style="ellipse;whiteSpace=wrap;html=1;" vertex="1" parent="1">
          <mxGeometry x="344" y="160.33999999999992" width="104" height="69.33" as="geometry" />
        </mxCell>
        <mxCell id="ayJkuLJCnhyEj2kJI8mR-50" style="edgeStyle=orthogonalEdgeStyle;rounded=0;orthogonalLoop=1;jettySize=auto;html=1;exitX=1;exitY=0.5;exitDx=0;exitDy=0;" edge="1" parent="1" source="ayJkuLJCnhyEj2kJI8mR-37" target="ayJkuLJCnhyEj2kJI8mR-51">
          <mxGeometry relative="1" as="geometry">
            <mxPoint x="590" y="275" as="targetPoint" />
          </mxGeometry>
        </mxCell>
        <mxCell id="ayJkuLJCnhyEj2kJI8mR-37" value="Excluir" style="ellipse;whiteSpace=wrap;html=1;" vertex="1" parent="1">
          <mxGeometry x="342" y="240.33999999999992" width="104" height="69.33" as="geometry" />
        </mxCell>
        <mxCell id="ayJkuLJCnhyEj2kJI8mR-39" value="Validar se o cliente ja esta cadastrado" style="ellipse;whiteSpace=wrap;html=1;" vertex="1" parent="1">
          <mxGeometry x="530" y="770" width="160" height="90" as="geometry" />
        </mxCell>
        <mxCell id="ayJkuLJCnhyEj2kJI8mR-41" value="Não posso Excluir o Cliente se ja tem uma ordem de serviço" style="ellipse;whiteSpace=wrap;html=1;" vertex="1" parent="1">
          <mxGeometry x="543.75" y="1018" width="140" height="93.33" as="geometry" />
        </mxCell>
        <mxCell id="ayJkuLJCnhyEj2kJI8mR-43" value="Validar se o produto da mesma marca já está cadastrado" style="ellipse;whiteSpace=wrap;html=1;" vertex="1" parent="1">
          <mxGeometry x="560" y="360.34" width="134.49" height="89.66" as="geometry" />
        </mxCell>
        <mxCell id="ayJkuLJCnhyEj2kJI8mR-45" style="edgeStyle=orthogonalEdgeStyle;rounded=0;orthogonalLoop=1;jettySize=auto;html=1;entryX=-0.023;entryY=0.404;entryDx=0;entryDy=0;entryPerimeter=0;" edge="1" parent="1" source="ayJkuLJCnhyEj2kJI8mR-29" target="ayJkuLJCnhyEj2kJI8mR-43">
          <mxGeometry relative="1" as="geometry" />
        </mxCell>
        <mxCell id="ayJkuLJCnhyEj2kJI8mR-47" value="Não pode ser excluido se estiver associado a ordem de serviço" style="ellipse;whiteSpace=wrap;html=1;" vertex="1" parent="1">
          <mxGeometry x="535" y="595.01" width="150" height="100" as="geometry" />
        </mxCell>
        <mxCell id="ayJkuLJCnhyEj2kJI8mR-49" value="Verificar se a ordem já existe" style="ellipse;whiteSpace=wrap;html=1;" vertex="1" parent="1">
          <mxGeometry x="560" y="-15" width="120" height="80" as="geometry" />
        </mxCell>
        <mxCell id="ayJkuLJCnhyEj2kJI8mR-51" value="Não pode ser excluido se tiver produto associado" style="ellipse;whiteSpace=wrap;html=1;" vertex="1" parent="1">
          <mxGeometry x="556.25" y="232.5" width="127.5" height="85" as="geometry" />
        </mxCell>
      </root>
    </mxGraphModel>
  </diagram>
</mxfile>
